<svg width="65" height="64" viewBox="0 0 65 64" fill="none" xmlns="http://www.w3.org/2000/svg">
<g clip-path="url(#clip0_1_227)">
<path d="M56.9531 31.2517C56.9531 31.1227 56.9425 30.9936 56.9425 30.8643C56.9425 30.7891 56.9315 30.7243 56.9315 30.6491C56.9209 30.5307 56.9209 30.4013 56.9102 30.2829C56.9102 30.2077 56.8993 30.1432 56.8993 30.0677C56.8886 29.9387 56.8777 29.8093 56.867 29.6803C56.8563 29.6157 56.8563 29.5619 56.8454 29.4971C56.8241 29.3141 56.8025 29.1419 56.7809 28.9589C56.7809 28.9483 56.7809 28.9483 56.7809 28.9373C56.7593 28.7544 56.727 28.5715 56.7057 28.3885C56.6947 28.3237 56.6841 28.2701 56.6731 28.2053C56.6518 28.0763 56.6302 27.9579 56.6086 27.8395C56.5979 27.7749 56.587 27.6995 56.5657 27.6349C56.5441 27.5165 56.5225 27.4088 56.5011 27.2904C56.4902 27.2152 56.4686 27.1504 56.4579 27.0859C56.4363 26.9675 56.4041 26.8491 56.3827 26.7307C56.3718 26.6661 56.3502 26.6015 56.3395 26.5477C56.3073 26.3862 56.2641 26.2247 56.2211 26.074C56.2105 26.0417 56.2105 26.0202 56.1995 25.9879C56.1566 25.8157 56.1134 25.6542 56.0595 25.4927C56.0382 25.4281 56.0273 25.3635 56.0059 25.2989C55.9737 25.1913 55.9411 25.0729 55.9089 24.9653C55.8875 24.8899 55.8659 24.8253 55.8443 24.7499C55.8121 24.6423 55.7798 24.5454 55.7475 24.4378C55.7259 24.3624 55.7043 24.2978 55.6721 24.2225C55.6398 24.1148 55.5969 24.0179 55.5646 23.9103C55.543 23.8457 55.5214 23.7703 55.4891 23.7058C55.4462 23.5766 55.3923 23.4474 55.3385 23.3182C55.3169 23.2537 55.2846 23.1891 55.263 23.1245C55.2091 22.9845 55.1555 22.8554 55.1017 22.7154C55.0694 22.6401 55.0371 22.5755 55.0155 22.5001C54.9723 22.4032 54.9294 22.3063 54.8971 22.2202C54.8649 22.1449 54.8326 22.0695 54.7894 21.9942C54.7465 21.9081 54.7033 21.8219 54.671 21.7358C54.6387 21.6605 54.5955 21.5851 54.5633 21.5098C54.5203 21.4236 54.4771 21.3375 54.4342 21.2514C54.391 21.1761 54.3587 21.1007 54.3158 21.0253C54.2726 20.9285 54.219 20.8423 54.1651 20.7455C54.1006 20.627 54.0358 20.5086 53.9713 20.3902C53.9174 20.3041 53.8745 20.2072 53.8206 20.1211C53.7777 20.0458 53.7238 19.9596 53.6806 19.8843C53.6377 19.8089 53.5945 19.7336 53.5515 19.6582C53.4977 19.5721 53.4545 19.4967 53.4009 19.4214C53.3577 19.3568 53.3147 19.2815 53.2715 19.2169C53.2177 19.1307 53.1641 19.0554 53.1209 18.9693C53.0779 18.9047 53.0347 18.8401 52.9918 18.7755C52.9379 18.6894 52.8841 18.614 52.8302 18.5279C52.7873 18.4741 52.755 18.4203 52.7118 18.3557C52.5934 18.1834 52.4643 18.0005 52.335 17.8282C52.3027 17.7851 52.2705 17.7421 52.2489 17.7098C52.1843 17.6237 52.1198 17.5376 52.0553 17.4514C52.0121 17.3976 51.9798 17.3438 51.9369 17.3007C51.8721 17.2146 51.8075 17.1285 51.7323 17.0424C51.6891 16.9886 51.6462 16.9455 51.6139 16.8917C51.5491 16.8056 51.4739 16.7194 51.3985 16.6333C51.3662 16.5903 51.3233 16.5472 51.291 16.5042C51.2155 16.418 51.1401 16.3211 51.0649 16.235C51.0433 16.2135 51.0217 16.192 51.011 16.1705C50.731 15.8475 50.4403 15.5353 50.1499 15.2339C50.1174 15.2016 50.0851 15.1693 50.0638 15.137C49.9777 15.0509 49.8915 14.9648 49.8054 14.8787C49.7731 14.8464 49.7409 14.8141 49.7083 14.7818C49.6225 14.6957 49.5254 14.6095 49.4393 14.5234C49.407 14.5019 49.3854 14.4696 49.3531 14.4481C49.2347 14.3404 49.1163 14.2328 48.9979 14.1251L48.9873 14.1144C48.8689 14.0067 48.7505 13.8991 48.6321 13.8022C48.4275 13.63 48.2121 13.447 48.0075 13.2747C47.9862 13.264 47.9753 13.2424 47.9539 13.2317C47.8462 13.1455 47.7385 13.0594 47.6307 12.9733C47.6094 12.9518 47.5878 12.941 47.5555 12.9195C47.4478 12.8334 47.3294 12.7473 47.2219 12.6719C47.2003 12.6611 47.1894 12.6504 47.1681 12.6396C47.0174 12.5319 46.8665 12.4243 46.7158 12.3167C46.7051 12.3059 46.6942 12.2951 46.6729 12.2844C46.5222 12.1767 46.3713 12.0798 46.2206 11.983C46.0161 11.8538 45.8115 11.7138 45.607 11.5954H45.5963C45.4673 11.5201 45.3379 11.4339 45.2089 11.3586C45.1979 11.3478 45.1766 11.3371 45.1657 11.3371C45.0366 11.2617 44.9073 11.1864 44.7782 11.111C44.7675 11.111 44.7675 11.1002 44.7566 11.1002C44.5521 10.9926 44.3585 10.8742 44.1539 10.7773C44.143 10.7665 44.1323 10.7665 44.1217 10.7558C43.9278 10.6481 43.7233 10.5513 43.5187 10.4544C43.3681 10.379 43.2281 10.3144 43.0774 10.2391C42.9267 10.1637 42.7651 10.0991 42.6145 10.0238C42.6038 10.0238 42.5929 10.013 42.5929 10.013C42.3993 9.92688 42.2054 9.85155 42.0118 9.76541C41.9363 9.73312 41.8718 9.7116 41.7963 9.67931C41.6673 9.62547 41.5489 9.58243 41.4195 9.53936C41.3334 9.50707 41.2473 9.47477 41.1611 9.44248C40.9891 9.37789 40.8169 9.32405 40.6446 9.25947C40.5801 9.23795 40.5046 9.21643 40.4291 9.19488C40.2355 9.13029 40.0526 9.07648 39.8587 9.01189C39.8481 9.01189 39.8481 9.01189 39.8371 9.00112C39.6971 8.95805 39.5465 8.91501 39.4065 8.87195C39.3958 8.87195 39.3851 8.86117 39.3742 8.86117C37.2966 8.30141 35.1654 8 32.9585 8C29.4491 8 26.1121 8.75352 23.1088 10.1099C23.0657 10.1314 23.0226 10.153 22.9796 10.1637C22.872 10.2175 22.7535 10.2714 22.6459 10.3252C22.5921 10.3467 22.5382 10.379 22.4844 10.4005C22.3445 10.4651 22.2045 10.5405 22.0646 10.6051C22.0215 10.6266 21.9785 10.6481 21.9354 10.6697C21.8278 10.7235 21.7201 10.7773 21.6125 10.8419C21.5586 10.8742 21.5048 10.8957 21.451 10.928C21.311 11.0034 21.1819 11.0787 21.0527 11.1541C21.0096 11.1756 20.9558 11.2079 20.9128 11.2294C20.8159 11.2833 20.7082 11.3478 20.6113 11.4124C20.5575 11.4447 20.5037 11.477 20.4499 11.5093C20.3207 11.5847 20.1915 11.6708 20.0624 11.7461C20.0193 11.7784 19.9655 11.8107 19.9224 11.843C19.8255 11.9076 19.7286 11.9722 19.6425 12.026C19.5887 12.0583 19.5349 12.0906 19.4918 12.1337C19.3626 12.2198 19.2442 12.3059 19.115 12.392C19.072 12.4243 19.0182 12.4566 18.9751 12.4997C18.889 12.5642 18.7921 12.6289 18.706 12.6934C18.6522 12.7257 18.6091 12.7688 18.5553 12.8118C18.4369 12.8979 18.3185 12.9949 18.2 13.081C18.1462 13.124 18.1032 13.1563 18.0493 13.1994C17.9632 13.264 17.8771 13.3286 17.8017 13.4039C17.7479 13.447 17.7049 13.49 17.651 13.5223C17.5326 13.6192 17.425 13.7161 17.3066 13.813C17.2528 13.856 17.2097 13.8991 17.1559 13.9421C17.0805 14.0067 16.9944 14.0821 16.919 14.1467C16.8652 14.1897 16.8222 14.2328 16.7791 14.2758C16.6714 14.3727 16.5638 14.4696 16.4562 14.5773C16.4023 14.6203 16.3593 14.6741 16.3054 14.7172C16.2301 14.7926 16.1548 14.8571 16.0902 14.9325C16.0471 14.9755 15.9933 15.0294 15.9502 15.0724C15.8426 15.1801 15.7457 15.277 15.6488 15.3846C15.595 15.4384 15.5519 15.4923 15.4981 15.5353C15.4335 15.6107 15.3581 15.6753 15.2936 15.7506C15.2505 15.8045 15.1967 15.8475 15.1536 15.9013C15.0567 16.009 14.9598 16.1166 14.863 16.2243C14.8092 16.2781 14.7661 16.3319 14.7123 16.3965C14.6477 16.4719 14.5938 16.5365 14.5293 16.6118C14.4754 16.6764 14.4216 16.7302 14.3786 16.7948C14.2924 16.8917 14.2171 16.9993 14.131 17.107C14.0879 17.1716 14.0341 17.2254 13.991 17.29C13.9372 17.3653 13.8726 17.4407 13.8188 17.516C13.7542 17.5914 13.7004 17.6775 13.6466 17.7529C13.582 17.839 13.5174 17.9359 13.442 18.0327C13.399 18.0973 13.3452 18.1619 13.3021 18.2265C13.2483 18.3019 13.2052 18.3772 13.1514 18.4418C13.0868 18.5387 13.0222 18.6356 12.9576 18.7217C12.9038 18.8078 12.85 18.8831 12.7961 18.9693C12.7531 19.0446 12.71 19.1092 12.6562 19.1846C12.6132 19.2599 12.5701 19.3245 12.5162 19.3999C12.4517 19.5075 12.3871 19.6152 12.3225 19.7228C12.2794 19.7982 12.2364 19.8735 12.1825 19.9489C12.1395 20.0242 12.0964 20.0996 12.0534 20.1749C12.0103 20.2503 11.978 20.3149 11.935 20.3902C11.8704 20.5086 11.8058 20.627 11.7412 20.7455C11.6981 20.8208 11.6658 20.8854 11.6336 20.9607C11.5905 21.0361 11.5474 21.1222 11.5151 21.1976C11.4828 21.2622 11.4505 21.3375 11.4075 21.4021C11.3429 21.5313 11.2783 21.6605 11.2245 21.7896C11.1922 21.8542 11.1599 21.9188 11.1276 21.9942C11.0845 22.0803 11.0522 22.1664 11.0092 22.2525C10.9769 22.3171 10.9554 22.3817 10.9231 22.4571C10.8585 22.597 10.8047 22.7369 10.7401 22.8769C10.7185 22.9415 10.6862 23.0061 10.6647 23.0706C10.6324 23.1568 10.5894 23.2537 10.5571 23.3398C10.5356 23.4043 10.514 23.4689 10.4817 23.5335C10.4279 23.6842 10.3741 23.8349 10.3202 23.9857C10.2987 24.0502 10.2772 24.1041 10.2557 24.1686C10.2234 24.2655 10.1911 24.3517 10.1588 24.4485C10.1373 24.5023 10.1265 24.5669 10.105 24.6208C10.0511 24.7822 9.99731 24.9437 9.95425 25.1052C9.93273 25.159 9.92195 25.2236 9.90043 25.2774C9.86814 25.3743 9.84659 25.4712 9.8143 25.5681C9.80355 25.6219 9.782 25.6757 9.77126 25.7188C9.72819 25.891 9.68512 26.0633 9.64206 26.2355C9.63131 26.2893 9.60976 26.3539 9.59902 26.4077C9.57747 26.5046 9.55595 26.6122 9.52366 26.7091C9.51288 26.7523 9.50214 26.7952 9.49136 26.8384C9.4483 27.0213 9.416 27.2152 9.37294 27.3981C9.36219 27.452 9.35142 27.5056 9.34064 27.5704C9.31912 27.6779 9.2976 27.7749 9.28683 27.8824C9.28683 27.9147 9.27606 27.9363 9.27606 27.9685C9.24376 28.1731 9.21147 28.3776 9.17918 28.5821C9.16843 28.636 9.16843 28.6899 9.15766 28.7437C9.14688 28.8512 9.12536 28.9589 9.11459 29.0667C9.01771 30.0355 8.95312 31.0149 8.95312 32.0053C8.95312 40.9832 13.8834 48.7984 21.1711 52.9213C21.2142 52.9429 21.2572 52.9643 21.3003 52.9965C21.4402 53.072 21.5909 53.1581 21.7309 53.2333C21.7847 53.2659 21.8493 53.2981 21.9031 53.3304C21.9892 53.3733 22.0753 53.4165 22.1615 53.4595C22.2153 53.4917 22.2691 53.5133 22.3337 53.5456C22.5167 53.6317 22.6997 53.7179 22.872 53.804C22.9042 53.8147 22.9258 53.8256 22.9581 53.8469C23.0549 53.8901 23.1518 53.9331 23.2595 53.9763C23.3025 53.9979 23.3456 54.0192 23.3886 54.0301C23.7224 54.1699 24.0561 54.3099 24.4005 54.4392C24.4221 54.4499 24.4544 54.4605 24.4759 54.4715C24.8419 54.6115 25.2186 54.7405 25.5954 54.8589C26.1121 55.0205 26.6396 55.1712 27.1671 55.3003C29.0187 55.7525 30.9454 56 32.9369 56C39.4819 56 45.4134 53.3843 49.7515 49.132C51.0003 47.9048 52.1089 46.5485 53.067 45.0845C53.067 45.0845 53.067 45.0845 53.067 45.0739C53.1747 44.9123 53.2715 44.7509 53.3793 44.5893C53.3793 44.5893 53.3793 44.5787 53.3899 44.5787C53.487 44.4171 53.5838 44.2557 53.6806 44.0941C53.6806 44.0835 53.6915 44.0835 53.6915 44.0725C53.7883 43.9112 53.8745 43.7496 53.9606 43.5883C53.9713 43.5776 53.9713 43.5667 53.9819 43.556C54.0681 43.3944 54.1542 43.2331 54.2403 43.0715C54.2513 43.0608 54.2513 43.0501 54.2619 43.0285C54.3481 42.8669 54.4235 42.7056 54.4987 42.544C54.5097 42.5227 54.5203 42.5117 54.5203 42.4901C54.5955 42.3288 54.671 42.1781 54.7465 42.0165C54.7571 41.9949 54.7678 41.9736 54.7787 41.952C54.8539 41.8013 54.9185 41.6397 54.9833 41.4784C54.9939 41.4568 55.0046 41.4352 55.0155 41.4029C55.0801 41.2523 55.1446 41.0909 55.2091 40.94C55.2201 40.9077 55.2307 40.8864 55.2417 40.8541C55.3062 40.7032 55.3601 40.5525 55.4137 40.3912C55.4246 40.3589 55.4353 40.3264 55.4462 40.2941C55.4998 40.1435 55.5537 39.9928 55.6075 39.8421C55.6182 39.8099 55.6291 39.7667 55.6505 39.7344C55.7043 39.5837 55.7475 39.4331 55.8014 39.2931C55.8121 39.2501 55.8227 39.2179 55.8443 39.1747C55.8875 39.024 55.9305 38.884 55.9737 38.7333C55.9843 38.6904 56.0059 38.6472 56.0166 38.6043C56.0595 38.4643 56.0921 38.3136 56.135 38.1736C56.1457 38.1197 56.1673 38.0768 56.1782 38.0229C56.2105 37.8829 56.2534 37.7429 56.2857 37.6029C56.2966 37.5493 56.3073 37.4955 56.3289 37.4416C56.3611 37.3016 56.3934 37.1616 56.415 37.0219C56.4257 36.968 56.4363 36.9035 56.4579 36.8496C56.4902 36.7096 56.5118 36.5805 56.5334 36.4405C56.5441 36.376 56.5547 36.3112 56.5657 36.2573C56.587 36.1283 56.6086 35.9883 56.6302 35.8592C56.6409 35.7947 56.6518 35.7299 56.6625 35.6653C56.6841 35.5363 56.7057 35.3963 56.7163 35.2672C56.727 35.2024 56.7379 35.1272 56.7486 35.0627C56.7702 34.9333 56.7809 34.8043 56.7915 34.6749C56.8025 34.5997 56.8131 34.5352 56.8131 34.4597C56.8241 34.3307 56.8347 34.2013 56.8454 34.0723C56.8563 33.9968 56.8563 33.9216 56.867 33.8461C56.8777 33.7171 56.8886 33.5771 56.8886 33.4477C56.8886 33.3725 56.8993 33.308 56.8993 33.2325C56.9102 33.0925 56.9102 32.9419 56.9209 32.8019C56.9209 32.7373 56.9315 32.6728 56.9315 32.6189C56.9315 32.4144 56.9425 32.1992 56.9425 31.9947C56.9425 31.8008 56.9425 31.6072 56.9315 31.424C56.9531 31.3701 56.9531 31.3056 56.9531 31.2517ZM37.8027 50.6931H32.4526H28.4374V42.0704V21.682L24.9495 21.6497L24.9603 20.3041L24.9818 16.9563L27.7593 14.4804L29.503 12.9303H37.8027V50.6931ZM40.1494 28.2701C40.1494 26.7845 41.3657 25.5681 42.8513 25.5681C44.3369 25.5681 45.5534 26.7845 45.5534 28.2701C45.5534 29.7555 44.3369 30.972 42.8513 30.972C41.355 30.9613 40.1494 29.7555 40.1494 28.2701ZM43.1958 37.0109H41.2473L49.6438 25.5035H51.603L51.151 26.1171L45.3273 34.0939L43.1958 37.0109ZM49.8915 37.0109C49.8161 37.0109 49.7299 37.0109 49.6547 37.0003C49.2241 36.968 48.815 36.828 48.4705 36.6019C47.7062 36.1283 47.1894 35.2779 47.1894 34.3091C47.1894 32.8235 48.4059 31.6072 49.8915 31.6072C51.3769 31.6072 52.5934 32.8235 52.5934 34.3091C52.5827 35.7947 51.3769 37.0109 49.8915 37.0109Z" fill="#25241D"/>
<path d="M49.8921 33.1135C49.2355 33.1135 48.6974 33.6517 48.6974 34.3085C48.6974 34.965 49.2355 35.5034 49.8921 35.5034C50.5489 35.5034 51.087 34.965 51.087 34.3085C51.0763 33.6517 50.5489 33.1135 49.8921 33.1135Z" fill="#25241D"/>
<path d="M44.0467 28.2701C44.0467 27.6133 43.5083 27.0752 42.8518 27.0752C42.1953 27.0752 41.6569 27.6133 41.6569 28.2701C41.6569 28.9267 42.1953 29.4651 42.8518 29.4651C43.5083 29.4541 44.0467 28.9267 44.0467 28.2701Z" fill="#25241D"/>
</g>
<defs>
<clipPath id="clip0_1_227">
<rect width="64" height="64" fill="white" transform="translate(0.953125)"/>
</clipPath>
</defs>
</svg>
