<svg width="64" height="64" viewBox="0 0 64 64" fill="none" xmlns="http://www.w3.org/2000/svg">
<g clip-path="url(#clip0_1_195)">
<path d="M20.2018 7.02421C20.123 6.90341 20.031 6.79605 19.9259 6.70211C19.8077 6.60819 19.6895 6.54107 19.545 6.48739C19.4005 6.43371 19.256 6.40688 19.0984 6.40688C18.8094 6.40688 18.5729 6.46056 18.3759 6.58133C18.1789 6.68869 18.0212 6.84973 17.8898 7.03762C17.7716 7.22549 17.6797 7.44024 17.6271 7.68179C17.5746 7.92336 17.5483 8.16493 17.5483 8.43333C17.5483 8.67488 17.5746 8.91645 17.6271 9.15802C17.6797 9.38616 17.7716 9.60088 17.8898 9.78877C18.0081 9.97664 18.1789 10.1243 18.3759 10.2316C18.5729 10.339 18.8094 10.4061 19.0984 10.4061C19.4793 10.4061 19.7814 10.2853 20.0047 10.0438C20.2281 9.80218 20.3594 9.48011 20.3988 9.09091H21.6205C21.5942 9.45325 21.5023 9.78877 21.3709 10.084C21.2395 10.3793 21.0556 10.6342 20.8455 10.8355C20.6221 11.0369 20.3726 11.1979 20.0704 11.3053C19.7814 11.4126 19.453 11.4663 19.0984 11.4663C18.6649 11.4663 18.2577 11.3858 17.9161 11.2382C17.5614 11.0771 17.2725 10.8624 17.0229 10.594C16.7864 10.3256 16.6025 10.0035 16.4711 9.62773C16.3398 9.26539 16.2741 8.86277 16.2741 8.43333C16.2741 7.99045 16.3398 7.58784 16.4711 7.21208C16.6025 6.83632 16.7864 6.51424 17.0229 6.2324C17.2593 5.95059 17.5614 5.73587 17.9161 5.57483C18.2708 5.41379 18.6649 5.33325 19.0984 5.33325C19.4136 5.33325 19.7158 5.37352 19.9916 5.46747C20.2675 5.56139 20.5302 5.6956 20.7404 5.87005C20.9637 6.04453 21.1476 6.27267 21.2921 6.52765C21.4366 6.79605 21.5285 7.09131 21.5679 7.4268H20.3463C20.32 7.27917 20.2806 7.14499 20.2018 7.02421Z" fill="#25241D"/>
<path d="M23.4077 10.2987C23.5785 10.4731 23.8281 10.5537 24.1433 10.5537C24.3798 10.5537 24.5768 10.5 24.7345 10.3792C24.9052 10.2584 24.9972 10.1376 25.0366 10.0034H26.0349C25.8773 10.5134 25.6277 10.8757 25.2993 11.0905C24.9709 11.3052 24.5637 11.4125 24.0908 11.4125C23.7624 11.4125 23.4734 11.3589 23.2107 11.2515C22.9479 11.1441 22.7246 10.9965 22.5407 10.7952C22.3568 10.5939 22.2123 10.3658 22.1204 10.084C22.0153 9.81555 21.9759 9.50688 21.9759 9.18478C21.9759 8.8627 22.0284 8.56744 22.1335 8.29904C22.2386 8.03064 22.3831 7.78907 22.567 7.58779C22.7509 7.38648 22.9742 7.22544 23.2369 7.11808C23.4997 6.99728 23.7887 6.9436 24.1039 6.9436C24.4586 6.9436 24.7607 7.0107 25.0234 7.15832C25.2862 7.29254 25.4963 7.48043 25.6671 7.72198C25.8379 7.96355 25.9561 8.23195 26.0349 8.5272C26.1137 8.82243 26.14 9.14454 26.1137 9.46662H23.1187C23.145 9.85579 23.2369 10.1242 23.4077 10.2987ZM24.7082 8.07091C24.5768 7.92328 24.3666 7.84278 24.0908 7.84278C23.9069 7.84278 23.7624 7.8696 23.631 7.9367C23.5128 8.00382 23.4209 8.08432 23.342 8.16486C23.2763 8.2588 23.2238 8.35272 23.1844 8.46008C23.1581 8.56744 23.1319 8.66139 23.1319 8.74192H24.984C24.9315 8.44667 24.8395 8.21854 24.7082 8.07091Z" fill="#25241D"/>
<path d="M27.7296 7.07806V7.86988H27.7427C27.7952 7.73566 27.8739 7.61489 27.9528 7.50753C28.0448 7.40017 28.1499 7.30622 28.268 7.22569C28.3864 7.14518 28.5176 7.0915 28.6491 7.03782C28.7803 6.99756 28.9248 6.9707 29.0693 6.9707C29.1483 6.9707 29.2269 6.98414 29.3189 7.01097V8.09801C29.2664 8.0846 29.2008 8.07118 29.1219 8.07118C29.0432 8.05774 28.9773 8.05774 28.9117 8.05774C28.7016 8.05774 28.5307 8.09801 28.3864 8.1651C28.2419 8.23222 28.1235 8.33958 28.0317 8.46036C27.9397 8.58113 27.8739 8.72876 27.8477 8.8898C27.8083 9.05086 27.7952 9.22532 27.7952 9.42662V11.3189H26.6523V7.07806H27.7296Z" fill="#25241D"/>
<path d="M32.368 7.07788V7.85626H31.5272V9.96322C31.5272 10.1645 31.5536 10.2853 31.6192 10.3524C31.6848 10.4195 31.8163 10.4464 32 10.4464C32.0659 10.4464 32.1315 10.4464 32.184 10.4329C32.2366 10.4329 32.3022 10.4195 32.3547 10.4061V11.3052C32.263 11.3187 32.1446 11.3321 32.0395 11.3321C31.9214 11.3321 31.803 11.3455 31.6979 11.3455C31.5272 11.3455 31.3566 11.3321 31.1987 11.3052C31.0411 11.2784 30.8966 11.2382 30.7784 11.1576C30.6603 11.0905 30.5683 10.9832 30.4894 10.8489C30.4238 10.7148 30.3843 10.5403 30.3843 10.339V7.8294H29.6883V7.05103H30.3843V5.77612H31.5272V7.05103H32.368V7.07788Z" fill="#25241D"/>
<path d="M32.9435 5.45386H34.0861V6.4201H32.9435V5.45386ZM34.0861 11.3185H32.9435V7.0777H34.0861V11.3185Z" fill="#25241D"/>
<path d="M34.5624 7.85633V7.07796H35.2456V6.75588C35.2456 6.38012 35.3637 6.07145 35.5872 5.82988C35.8234 5.58833 36.165 5.46753 36.6378 5.46753C36.7432 5.46753 36.8349 5.46753 36.94 5.48097C37.0453 5.49438 37.137 5.49438 37.2421 5.5078V6.38012C37.1109 6.3667 36.9664 6.35326 36.8218 6.35326C36.6642 6.35326 36.5592 6.39353 36.4936 6.46065C36.4277 6.52774 36.3885 6.66193 36.3885 6.83641V7.0914H37.1765V7.86977H36.3885V11.3188H35.2456V7.85633H34.5624Z" fill="#25241D"/>
<path d="M37.8586 5.45386H39.0016V6.4201H37.8586V5.45386ZM39.0016 11.3185H37.8586V7.0777H39.0016V11.3185Z" fill="#25241D"/>
<path d="M40.8003 10.2987C40.9712 10.4731 41.2208 10.5537 41.536 10.5537C41.7723 10.5537 41.9693 10.5 42.1269 10.3792C42.2979 10.2584 42.3899 10.1376 42.4291 10.0034H43.4275C43.2699 10.5134 43.0203 10.8757 42.692 11.0905C42.3635 11.3052 41.9563 11.4125 41.4835 11.4125C41.1549 11.4125 40.8659 11.3589 40.6032 11.2515C40.3405 11.1441 40.1173 10.9965 39.9333 10.7952C39.7493 10.5939 39.6051 10.3658 39.5131 10.084C39.408 9.81555 39.3685 9.50688 39.3685 9.18478C39.3685 8.8627 39.4211 8.56744 39.5261 8.29904C39.6312 8.03064 39.7757 7.78907 39.9597 7.58779C40.1435 7.38648 40.3669 7.22544 40.6296 7.11808C40.8923 6.99728 41.1813 6.9436 41.4965 6.9436C41.8512 6.9436 42.1533 7.0107 42.416 7.15832C42.6787 7.29254 42.8891 7.48043 43.0597 7.72198C43.2304 7.96355 43.3488 8.23195 43.4275 8.5272C43.5064 8.82243 43.5325 9.14454 43.5064 9.46662H40.5112C40.5376 9.85579 40.6296 10.1242 40.8003 10.2987ZM42.0877 8.07091C41.9563 7.92328 41.7461 7.84278 41.4701 7.84278C41.2864 7.84278 41.1419 7.8696 41.0104 7.9367C40.8923 8.00382 40.7872 8.08432 40.7216 8.16486C40.6427 8.2588 40.6032 8.35272 40.564 8.46008C40.5376 8.56744 40.5112 8.66139 40.5112 8.74192H42.3635C42.324 8.44667 42.2189 8.21854 42.0877 8.07091Z" fill="#25241D"/>
<path d="M46.976 10.7683C46.8445 10.9964 46.6605 11.1575 46.4504 11.2648C46.2272 11.3722 45.9907 11.4124 45.7149 11.4124C45.3995 11.4124 45.1368 11.3453 44.9003 11.2246C44.664 11.1038 44.4669 10.9293 44.3224 10.728C44.1648 10.5133 44.0597 10.2717 43.9808 10.0033C43.9021 9.7349 43.8627 9.43964 43.8627 9.14442C43.8627 8.86258 43.9021 8.58076 43.9808 8.32578C44.0597 8.05738 44.1779 7.82922 44.3224 7.62794C44.48 7.42663 44.664 7.26559 44.9003 7.14479C45.1368 7.02402 45.3995 6.95692 45.7016 6.95692C45.9512 6.95692 46.1877 7.0106 46.3979 7.11796C46.6211 7.22532 46.792 7.38636 46.9232 7.58767H46.9365V5.45386H48.0792V11.3185H46.9891V10.7817H46.976V10.7683ZM46.9232 8.67471C46.8971 8.51367 46.8315 8.36604 46.7525 8.24524C46.6739 8.12447 46.5685 8.01711 46.4504 7.95002C46.3323 7.86948 46.1747 7.82922 45.9907 7.82922C45.8067 7.82922 45.6491 7.86948 45.5179 7.95002C45.3864 8.03052 45.2813 8.12447 45.2024 8.25868C45.1237 8.37946 45.0712 8.52708 45.0317 8.68812C44.9923 8.84916 44.9792 9.02362 44.9792 9.1981C44.9792 9.35914 44.9923 9.52018 45.0317 9.69463C45.0712 9.85567 45.1368 10.0033 45.2157 10.1375C45.2944 10.2717 45.3995 10.3656 45.5309 10.4462C45.6624 10.5267 45.8067 10.567 45.9907 10.567C46.1747 10.567 46.3323 10.5267 46.4635 10.4462C46.5949 10.3656 46.6869 10.2717 46.7656 10.1375C46.8445 10.0033 46.8971 9.86911 46.9232 9.69463C46.9496 9.53359 46.976 9.35914 46.976 9.18468C46.976 9.0102 46.9627 8.83575 46.9232 8.67471Z" fill="#25241D"/>
<path d="M25.3411 20.8469H31.988C33.6037 20.8469 35.7317 20.8469 36.8352 21.5314C38.0437 22.2695 38.9896 23.5981 38.9896 25.4366C38.9896 27.4229 37.9648 28.9259 36.2704 29.6371V29.6909C38.5296 30.1605 39.7645 31.8917 39.7645 34.2C39.7645 36.9512 37.8336 39.5816 34.1949 39.5816H25.3411V20.8469ZM27.7845 28.8989H32.6709C35.4426 28.8989 36.5725 27.8792 36.5725 25.9063C36.5725 23.3028 34.7728 22.9405 32.6709 22.9405H27.7845V28.8989ZM27.7845 37.4747H33.8928C35.9944 37.4747 37.3344 36.1595 37.3344 34.1195C37.3344 31.6771 35.4034 30.9925 33.3541 30.9925H27.7845V37.4747Z" fill="#25241D"/>
<path d="M46.0027 30.2147C46.0027 38.079 39.7632 44.4537 32.0523 44.4537C24.3545 44.4537 18.1149 38.079 18.1149 30.2147C18.1149 22.3505 24.3545 15.9758 32.0523 15.9758C39.7632 15.9758 46.0027 22.3505 46.0027 30.2147ZM32.0653 13.8018C23.1986 13.8018 16 21.1426 16 30.2147C16 39.2734 23.1854 46.6275 32.0653 46.6275C40.9323 46.6275 48.1307 39.2867 48.1307 30.2147C48.1307 21.1426 40.9323 13.8018 32.0653 13.8018Z" fill="#25241D"/>
<path d="M18.968 50.157C18.9155 49.741 18.5214 49.4322 18.0748 49.4322C17.2735 49.4322 16.9714 50.1301 16.9714 50.8549C16.9714 51.5391 17.2735 52.237 18.0748 52.237C18.6265 52.237 18.9286 51.8479 18.9943 51.3111H19.8613C19.7694 52.3445 19.0731 53.0021 18.0748 53.0021C16.8137 53.0021 16.0781 52.0493 16.0781 50.8415C16.0781 49.6069 16.8137 48.6538 18.0748 48.6538C18.968 48.6538 19.7168 49.1906 19.8219 50.1437L18.968 50.157Z" fill="#25241D"/>
<path d="M21.7269 49.8347C22.6596 49.8347 23.2507 50.4657 23.2507 51.4185C23.2507 52.3713 22.6596 53.0019 21.7269 53.0019C20.8074 53.0019 20.2031 52.3713 20.2031 51.4185C20.2163 50.4521 20.8074 49.8347 21.7269 49.8347ZM21.7269 52.3713C22.2786 52.3713 22.4494 51.8881 22.4494 51.4185C22.4494 50.9353 22.2786 50.4521 21.7269 50.4521C21.1752 50.4521 21.0176 50.9353 21.0176 51.4185C21.0176 51.8881 21.1883 52.3713 21.7269 52.3713Z" fill="#25241D"/>
<path d="M23.7247 49.9153H24.4866V50.479H24.4998C24.6442 50.1033 25.0515 49.8347 25.4324 49.8347C25.485 49.8347 25.5506 49.8483 25.6032 49.8616V50.6267C25.5244 50.6131 25.4061 50.5998 25.3142 50.5998C24.7231 50.5998 24.5129 51.0291 24.5129 51.5662V52.9214H23.7116V49.9153H23.7247Z" fill="#25241D"/>
<path d="M26.0494 49.9153H26.8114V50.3046H26.8245C27.0216 49.9825 27.3368 49.8347 27.7045 49.8347C28.6242 49.8347 29.0445 50.5998 29.0445 51.4454C29.0445 52.2505 28.6109 53.0019 27.757 53.0019C27.4024 53.0019 27.0741 52.8408 26.877 52.5456H26.8506V53.9816H26.0494V49.9153ZM28.2301 51.4185C28.2301 50.9353 28.0461 50.4521 27.5208 50.4521C26.9952 50.4521 26.8245 50.9353 26.8245 51.4185C26.8245 51.9017 27.0085 52.3713 27.5338 52.3713C28.0592 52.3713 28.2301 51.915 28.2301 51.4185Z" fill="#25241D"/>
<path d="M30.9483 49.8347C31.8808 49.8347 32.472 50.4657 32.472 51.4185C32.472 52.3713 31.8678 53.0019 30.9483 53.0019C30.0288 53.0019 29.4246 52.3713 29.4246 51.4185C29.4246 50.4521 30.0288 49.8347 30.9483 49.8347ZM30.9483 52.3713C31.5 52.3713 31.6707 51.8881 31.6707 51.4185C31.6707 50.9353 31.5 50.4521 30.9483 50.4521C30.3966 50.4521 30.239 50.9353 30.239 51.4185C30.239 51.8881 30.3966 52.3713 30.9483 52.3713Z" fill="#25241D"/>
<path d="M33.0112 49.9153H33.773V50.479H33.7861C33.9306 50.1033 34.3378 49.8347 34.7189 49.8347C34.7714 49.8347 34.8501 49.8483 34.8896 49.8616V50.6267C34.8109 50.6131 34.6925 50.5998 34.6005 50.5998C34.0096 50.5998 33.7994 51.0291 33.7994 51.5662V52.9214H32.9981V49.9153H33.0112Z" fill="#25241D"/>
<path d="M35.192 50.8414C35.2445 50.063 35.9147 49.8347 36.5715 49.8347C37.1624 49.8347 37.8587 49.9691 37.8587 50.6936V52.2505C37.8587 52.519 37.8851 52.8009 37.9637 52.9214H37.1493C37.1232 52.8275 37.0968 52.7337 37.0968 52.6262C36.8472 52.8947 36.4664 53.0019 36.1117 53.0019C35.56 53.0019 35.1133 52.7203 35.1133 52.103C35.1133 51.4185 35.6125 51.2574 36.1117 51.1902C36.6107 51.1097 37.0707 51.1366 37.0707 50.8011C37.0707 50.4521 36.8341 50.3985 36.5451 50.3985C36.2429 50.3985 36.0328 50.5192 36.0064 50.8547L35.192 50.8414ZM37.0573 51.4454C36.9261 51.5662 36.6371 51.5795 36.3875 51.6198C36.1379 51.6734 35.9147 51.7539 35.9147 52.0627C35.9147 52.3713 36.1509 52.4518 36.4139 52.4518C37.0443 52.4518 37.0707 51.9419 37.0707 51.7673L37.0573 51.4454Z" fill="#25241D"/>
<path d="M39.512 49.915H40.1029V50.4654H39.512V51.955C39.512 52.2369 39.5776 52.3038 39.8536 52.3038C39.9453 52.3038 40.0243 52.3038 40.1029 52.2772V52.9212C39.9717 52.9481 39.7877 52.9481 39.6301 52.9481C39.1309 52.9481 38.7107 52.8273 38.7107 52.2369V50.4654H38.2245V49.915H38.7107V49.0161H39.512V49.915Z" fill="#25241D"/>
<path d="M41.3123 49.4455H40.5112V48.761H41.3123V49.4455ZM40.5112 49.9151H41.3123V52.9213H40.5112V49.9151Z" fill="#25241D"/>
<path d="M43.2688 49.8347C44.2014 49.8347 44.7925 50.4657 44.7925 51.4185C44.7925 52.3713 44.1883 53.0019 43.2688 53.0019C42.3491 53.0019 41.7582 52.3713 41.7582 51.4185C41.7448 50.4521 42.3491 49.8347 43.2688 49.8347ZM43.2688 52.3713C43.8203 52.3713 43.9912 51.8881 43.9912 51.4185C43.9912 50.9353 43.8336 50.4521 43.2688 50.4521C42.7171 50.4521 42.5592 50.9353 42.5592 51.4185C42.5592 51.8881 42.7171 52.3713 43.2688 52.3713Z" fill="#25241D"/>
<path d="M45.3066 49.9153H46.0685V50.3315H46.0816C46.2917 49.9958 46.6333 49.8347 46.9749 49.8347C47.8288 49.8347 48.052 50.3315 48.052 51.0694V52.9214H47.2506V51.2304C47.2506 50.7339 47.1064 50.4923 46.7384 50.4923C46.305 50.4923 46.108 50.7475 46.108 51.3513V52.9214H45.3066V49.9153Z" fill="#25241D"/>
<path d="M48.0776 55.4712H16.0651V57.5648H48.0776V55.4712Z" fill="#25241D"/>
<path d="M48.5392 48.6406H48.3552V49.1641H48.2632V48.6406H48.0795V48.5601H48.5523V48.6406H48.5392ZM49.3275 49.1641H49.2355V48.6539L49.0384 49.1641H48.9728L48.7757 48.6539V49.1641H48.6707V48.5601H48.8283L49.012 49.0163L49.1829 48.5601H49.3405V49.1641H49.3275Z" fill="#25241D"/>
</g>
<defs>
<clipPath id="clip0_1_195">
<rect width="64" height="64" fill="white"/>
</clipPath>
</defs>
</svg>
