<svg width="96" height="26" viewBox="0 0 96 26" fill="none" xmlns="http://www.w3.org/2000/svg">
<path d="M51.4551 23.392C51.4551 23.8759 51.0615 24.2685 50.5776 24.2685H47.7139C47.4816 24.2682 47.2588 24.1758 47.0945 24.0115C46.9301 23.8472 46.8377 23.6244 46.8375 23.392V1.7277C46.8375 1.2429 47.2301 0.85026 47.7139 0.85026H50.5776C51.0624 0.85026 51.4551 1.24386 51.4551 1.7277V23.392ZM16.2951 7.98306C15.7987 8.26818 15.1699 8.00514 14.9367 7.48194C14.0592 5.51586 12.4608 4.53282 10.1424 4.53282C9.01539 4.53282 8.11395 4.77858 7.43811 5.26914C6.76131 5.73666 6.42339 6.32802 6.42339 7.0413C6.42339 7.9773 6.91971 8.71362 7.91139 9.24834C8.90307 9.78306 10.2442 10.2074 11.9338 10.5194C14.8195 11.0541 16.9258 11.8567 18.2563 12.9271C19.609 13.9744 20.2848 15.5018 20.2848 17.5082C20.2848 18.8685 19.9018 20.0839 19.1357 21.1533C18.3687 22.2237 17.2647 23.0714 15.8227 23.6954C14.4019 24.2973 12.7459 24.5978 10.8528 24.5978C8.50851 24.5978 6.34467 24.0631 4.36131 22.9927C2.55171 21.9962 1.18371 20.3776 0.25539 18.137C0.181216 17.9512 0.175543 17.7451 0.239385 17.5555C0.303227 17.3659 0.432421 17.2052 0.60387 17.1021L3.04803 15.5911C3.54915 15.281 4.20675 15.5459 4.42083 16.0951C4.91427 17.3546 5.62659 18.3501 6.55875 19.0807C7.75299 20.0167 9.21795 20.4851 10.9536 20.4851C12.3744 20.4851 13.512 20.2279 14.3683 19.7152C15.2247 19.2026 15.6528 18.5229 15.6528 17.6752C15.6528 16.8064 15.2592 16.1152 14.4701 15.6016C13.681 15.0669 12.2717 14.6435 10.2442 14.3315C4.65411 13.4839 1.85955 11.0426 1.85955 7.0077C1.85955 5.8269 2.20899 4.74498 2.90787 3.76386C3.62787 2.76066 4.63203 1.96866 5.91651 1.38978C7.22403 0.80994 8.72259 0.52002 10.4131 0.52002C12.5088 0.52002 14.3463 1.0221 15.9235 2.0253C17.3021 2.88258 18.3283 4.07202 19.0013 5.59362C19.1731 5.9805 19.0042 6.42498 18.6375 6.63618L16.2951 7.98306ZM80.5383 24.2685C80.3057 24.2685 80.0827 24.1762 79.9182 24.0118C79.7536 23.8475 79.6611 23.6246 79.6608 23.392V1.7277C79.6608 1.2429 80.0544 0.85026 80.5383 0.85026H95.1043C95.5891 0.85026 95.9818 1.24386 95.9818 1.7277V4.15458C95.9818 4.63938 95.5891 5.03202 95.1043 5.03202H85.0723C84.8398 5.03227 84.6169 5.12483 84.4525 5.28935C84.2882 5.45388 84.1959 5.67691 84.1959 5.90946V9.14082C84.1959 9.62562 84.5885 10.0211 85.0733 10.024C86.8647 10.0365 90.9427 10.0624 93.0951 10.0691C93.326 10.0699 93.5472 10.1616 93.711 10.3244C93.8747 10.4872 93.9676 10.708 93.9696 10.9389L93.9946 13.3447C93.9964 13.4605 93.9751 13.5756 93.932 13.6831C93.8889 13.7906 93.8248 13.8885 93.7435 13.9711C93.6622 14.0536 93.5653 14.1192 93.4584 14.1639C93.3516 14.2087 93.2368 14.2317 93.121 14.2317L85.0723 14.2336C84.8399 14.2336 84.617 14.326 84.4526 14.4903C84.2882 14.6547 84.1959 14.8776 84.1959 15.1101V19.2103C84.1959 19.6951 84.5895 20.0877 85.0733 20.0877H95.1053C95.5891 20.0877 95.9818 20.4813 95.9818 20.9651V23.393C95.9818 23.8768 95.5891 24.2695 95.1043 24.2695L80.5383 24.2685ZM23.688 24.2685C23.4856 24.2685 23.2915 24.1881 23.1484 24.045C23.0052 23.9018 22.9248 23.7077 22.9248 23.5053V1.61442C22.9248 1.19298 23.2666 0.85122 23.688 0.85122H26.688C27.1095 0.85122 27.4512 1.19298 27.4512 1.61442V9.39618C27.4512 9.72738 27.6634 10.0211 27.9792 10.1181C29.7312 10.6538 31.2125 10.9216 32.9203 10.9216C34.6483 10.9216 36.2573 10.6538 37.9968 10.1191C38.1495 10.0711 38.2827 9.97545 38.377 9.84623C38.4713 9.717 38.5218 9.56097 38.521 9.40098V1.61442C38.521 1.19202 38.8628 0.85026 39.2842 0.85026H42.2823C42.7047 0.85026 43.0464 1.19202 43.0464 1.61346V23.5053C43.0464 23.9277 42.7047 24.2685 42.2832 24.2685H39.2832C39.0808 24.2685 38.8867 24.1881 38.7436 24.045C38.6004 23.9018 38.52 23.7077 38.52 23.5053V15.3098C38.5188 15.1933 38.4916 15.0786 38.4404 14.9739C38.3891 14.8693 38.3152 14.7774 38.2239 14.705C38.1327 14.6326 38.0264 14.5815 37.9129 14.5554C37.7993 14.5294 37.6814 14.529 37.5677 14.5543C35.9741 14.897 34.489 15.0688 32.9194 15.0688C31.3642 15.0688 29.9866 14.896 28.3978 14.5514C28.2845 14.526 28.1669 14.5263 28.0538 14.5523C27.9406 14.5783 27.8347 14.6293 27.7438 14.7016C27.6529 14.7739 27.5794 14.8656 27.5286 14.97C27.4778 15.0744 27.451 15.1889 27.4503 15.305V23.5053C27.4503 23.9277 27.1085 24.2685 26.6871 24.2685H23.688Z" fill="#25241D"/>
<path fill-rule="evenodd" clip-rule="evenodd" d="M75.4541 0.850342C75.8621 0.850342 76.1923 1.18058 76.1923 1.58858V23.5313C76.1923 23.6282 76.1732 23.7242 76.1361 23.8137C76.099 23.9032 76.0446 23.9845 75.976 24.053C75.9075 24.1215 75.8261 24.1757 75.7365 24.2127C75.6469 24.2497 75.551 24.2687 75.4541 24.2686H73.3757C72.4809 24.2686 70.8413 23.706 69.9024 23.0244C68.9616 22.3419 68.1072 21.4308 67.3363 20.4622C65.8003 18.5297 64.3306 16.0135 62.9971 13.6539C62.7648 13.243 62.5363 12.8379 62.3136 12.4404C61.7443 11.4276 61.201 10.4599 60.6778 9.5681C60.3984 9.09098 59.6937 9.29162 59.6937 9.84458V23.5313C59.6937 23.6281 59.6747 23.724 59.6376 23.8134C59.6006 23.9029 59.5463 23.9842 59.4778 24.0526C59.4093 24.1211 59.3281 24.1754 59.2386 24.2125C59.1492 24.2495 59.0533 24.2686 58.9565 24.2686H55.8202C55.7232 24.2687 55.6273 24.2497 55.5377 24.2127C55.4481 24.1757 55.3668 24.1215 55.2982 24.053C55.2296 23.9845 55.1752 23.9032 55.1381 23.8137C55.101 23.7242 55.0819 23.6282 55.0819 23.5313V1.58858C55.0819 1.18058 55.4131 0.850342 55.8202 0.850342H57.7277C59.1033 0.850342 60.1757 1.70378 60.8678 2.34218C61.6128 3.02858 62.3078 3.7649 62.9491 4.70474C64.0166 6.27338 65.1389 8.10698 66.24 10.0692C66.457 10.4551 66.672 10.8401 66.887 11.2193C68.2368 13.6068 69.552 15.8369 70.8451 17.4631C71.1235 17.8126 71.5795 17.6705 71.5795 17.2231V1.58858C71.5795 1.18058 71.9098 0.850342 72.3168 0.850342H75.4541Z" fill="#25241D"/>
</svg>
