<svg width="40" height="36" viewBox="0 0 40 36" fill="none" xmlns="http://www.w3.org/2000/svg">
<rect y="2" width="40" height="32" rx="4" fill="white"/>
<g clip-path="url(#clip0_1_247)">
<path d="M20 12.0978C21.9224 12.0978 22.151 12.105 22.9097 12.1401C24.8609 12.2283 25.7726 13.1544 25.8617 15.0912C25.8959 15.8499 25.9031 16.0785 25.9031 18.0009C25.9031 19.9233 25.8959 20.151 25.8617 20.9097C25.7717 22.8447 24.8627 23.7726 22.9097 23.8617C22.1501 23.8959 21.9233 23.9031 20 23.9031C18.0776 23.9031 17.849 23.8959 17.0903 23.8617C15.1346 23.7717 14.2283 22.842 14.1392 20.9097C14.1041 20.1501 14.0969 19.9233 14.0969 18C14.0969 16.0776 14.105 15.8499 14.1392 15.0903C14.2292 13.1544 15.1382 12.2283 17.0912 12.1392C17.8499 12.105 18.0776 12.0978 20 12.0978ZM20 10.8C18.0443 10.8 17.7995 10.809 17.0318 10.8432C14.4173 10.9629 12.9638 12.4137 12.8441 15.0309C12.8081 15.7995 12.8 16.0443 12.8 18C12.8 19.9557 12.809 20.2005 12.8432 20.9691C12.9629 23.5836 14.4137 25.0371 17.0309 25.1568C17.7995 25.1919 18.0443 25.2 20 25.2C21.9557 25.2 22.2005 25.191 22.9691 25.1568C25.5809 25.0371 27.038 23.5863 27.1559 20.9691C27.1919 20.2005 27.2 19.9557 27.2 18C27.2 16.0443 27.191 15.7995 27.1568 15.0318C27.0398 12.4191 25.5863 10.9638 22.9691 10.8441C22.2005 10.8081 21.9557 10.8 20 10.8ZM20 14.3028C19.0194 14.3028 18.079 14.6924 17.3857 15.3857C16.6923 16.0791 16.3028 17.0195 16.3028 18C16.3028 18.9806 16.6923 19.921 17.3857 20.6144C18.079 21.3077 19.0194 21.6972 20 21.6972C20.9805 21.6972 21.9209 21.3077 22.6143 20.6144C23.3077 19.921 23.6972 18.9806 23.6972 18C23.6972 17.0195 23.3077 16.0791 22.6143 15.3857C21.9209 14.6924 20.9805 14.3028 20 14.3028ZM20 20.4003C19.3635 20.4003 18.7531 20.1475 18.303 19.6974C17.853 19.2474 17.6001 18.637 17.6001 18.0005C17.6001 17.364 17.853 16.7536 18.303 16.3035C18.7531 15.8535 19.3635 15.6006 20 15.6006C20.6365 15.6006 21.2469 15.8535 21.6969 16.3035C22.147 16.7536 22.3998 17.364 22.3998 18.0005C22.3998 18.637 22.147 19.2474 21.6969 19.6974C21.2469 20.1475 20.6365 20.4003 20 20.4003ZM23.843 13.293C23.7295 13.293 23.6172 13.3154 23.5123 13.3588C23.4075 13.4022 23.3123 13.4659 23.232 13.5461C23.1518 13.6263 23.0882 13.7216 23.0448 13.8264C23.0013 13.9312 22.979 14.0436 22.979 14.157C22.979 14.2705 23.0013 14.3829 23.0448 14.4877C23.0882 14.5925 23.1518 14.6878 23.232 14.768C23.3123 14.8482 23.4075 14.9119 23.5123 14.9553C23.6172 14.9987 23.7295 15.021 23.843 15.021C24.0721 15.021 24.2919 14.93 24.4539 14.768C24.616 14.606 24.707 14.3862 24.707 14.157C24.707 13.9279 24.616 13.7081 24.4539 13.5461C24.2919 13.3841 24.0721 13.293 23.843 13.293Z" fill="#25241D"/>
</g>
<defs>
<clipPath id="clip0_1_247">
<rect width="36" height="36" fill="white" transform="translate(2)"/>
</clipPath>
</defs>
</svg>
