<svg width="40" height="36" viewBox="0 0 40 36" fill="none" xmlns="http://www.w3.org/2000/svg">
<rect y="2" width="40" height="32" rx="4" fill="white"/>
<g clip-path="url(#clip0_1_251)">
<path d="M27.1703 19.1134V24.3478H24.0905V19.4644C24.0905 18.2368 23.645 17.3998 22.5299 17.3998C21.6794 17.3998 21.1727 17.9641 20.9495 18.5104C20.8685 18.7048 20.8478 18.9766 20.8478 19.2502V24.3478H17.7662C17.7662 24.3478 17.8076 16.0768 17.7662 15.2191H20.8469V16.5133C20.8406 16.5223 20.8325 16.5331 20.8271 16.543H20.8469V16.5133C21.2564 15.8923 21.9872 15.0049 23.6234 15.0049C25.6511 15.0049 27.1703 16.3099 27.1703 19.1134ZM14.5433 10.8181C13.4894 10.8181 12.8 11.4994 12.8 12.3958C12.8 13.2715 13.4696 13.9735 14.5028 13.9735H14.5235C15.5972 13.9735 16.2659 13.2715 16.2659 12.3958C16.2452 11.4994 15.5972 10.8181 14.5433 10.8181ZM12.9827 24.3478H16.0625V15.2191H12.9827V24.3478Z" fill="#25241D"/>
</g>
<defs>
<clipPath id="clip0_1_251">
<rect width="36" height="36" fill="white" transform="translate(2)"/>
</clipPath>
</defs>
</svg>
