<svg width="21" height="21" viewBox="0 0 21 21" fill="none" xmlns="http://www.w3.org/2000/svg">
<g clip-path="url(#clip0_1_159)">
<path d="M2.64485 0.857178C2.81247 0.857178 2.97723 0.900987 3.12199 0.983844L18.3639 9.68861C18.5069 9.77071 18.6259 9.88881 18.7091 10.0312C18.7923 10.1735 18.8368 10.3352 18.8382 10.5C18.8386 10.6654 18.7949 10.8279 18.7115 10.9707C18.6281 11.1135 18.5081 11.2315 18.3639 11.3124L3.12199 20.0172C2.90336 20.1414 2.64477 20.1751 2.4016 20.111C2.15844 20.0469 1.95004 19.8902 1.82104 19.6743C1.73707 19.5317 1.69268 19.3693 1.69247 19.2038V1.79623C1.6927 1.67261 1.71749 1.55028 1.7654 1.43633C1.8133 1.32237 1.88336 1.21907 1.97151 1.13242C2.15056 0.956225 2.39247 0.857178 2.64485 0.857178ZM10.542 11.8286L6.25818 16.0524L11.6868 12.9534L10.5439 11.8267H10.542V11.8286ZM3.59723 4.97527V16.0219L9.19723 10.4981L3.59723 4.97527ZM13.3915 9.01622L11.8887 10.5L13.3915 11.9819L15.9868 10.5L13.3915 9.01622ZM6.25818 4.94289L10.5439 9.17051L11.6868 8.04289L6.25818 4.94289Z" fill="#555249"/>
</g>
<defs>
<clipPath id="clip0_1_159">
<rect width="20" height="20" fill="white" transform="translate(0.234375 0.5)"/>
</clipPath>
</defs>
</svg>
