<svg width="21" height="21" viewBox="0 0 21 21" fill="none" xmlns="http://www.w3.org/2000/svg">
<g clip-path="url(#clip0_1_132)">
<path d="M15.0263 7.1438C14.5758 7.11047 14.0929 7.21237 13.351 7.47904C13.4139 7.45714 12.6444 7.73999 12.4291 7.81237C11.951 7.96952 11.5577 8.05618 11.1167 8.05618C10.6806 8.05618 10.2786 7.97333 9.81579 7.82666C9.65428 7.77427 9.49392 7.71839 9.33484 7.65904C9.25674 7.63047 8.97103 7.5219 8.90817 7.49999C8.29103 7.27142 7.94341 7.18571 7.65484 7.19237C6.55769 7.20571 5.51865 7.8038 4.91579 8.79523C3.68531 10.8143 4.36627 14.4619 6.16531 16.92C7.12341 18.22 7.64722 18.6838 7.85865 18.6771C8.07008 18.6686 8.22531 18.6267 8.60436 18.4752L8.76341 18.4114C9.72055 18.0257 10.392 17.8552 11.4025 17.8552C12.3748 17.8552 13.0244 18.0229 13.9434 18.3971L14.1034 18.4619C14.4825 18.6143 14.6196 18.6486 14.8577 18.6428C15.1986 18.639 15.6196 18.2686 16.551 16.9762C16.8063 16.6238 17.032 16.2524 17.2272 15.8781C17.0991 15.7784 16.9746 15.6742 16.8539 15.5657C15.6263 14.4609 14.8672 12.9705 14.8463 11.1305C14.83 9.75633 15.3064 8.42179 16.1891 7.36857C15.8146 7.23824 15.4224 7.16254 15.0263 7.1438ZM15.1739 5.34952C15.8482 5.39237 17.7796 5.58761 19.0367 7.32571C18.9339 7.37904 16.7282 8.58856 16.751 11.1152C16.7853 14.1381 19.551 15.1419 19.5853 15.1533C19.5625 15.2286 19.1396 16.5886 18.1225 17.9914C17.2425 19.2124 16.3282 20.4209 14.8882 20.4429C13.471 20.4752 13.0139 19.6543 11.4025 19.6543C9.7796 19.6543 9.27674 20.4209 7.9396 20.4752C6.54531 20.5181 5.49389 19.1581 4.60246 17.9486C2.78531 15.4657 1.40341 10.9524 3.26531 7.89714C3.72116 7.14392 4.36094 6.5189 5.12459 6.08077C5.88824 5.64263 6.75072 5.40575 7.63103 5.39237C8.99103 5.35999 10.2825 6.25618 11.1167 6.25618C11.9396 6.25618 13.4139 5.21999 15.1739 5.34952ZM14.0891 3.70952C13.3463 4.55142 12.1348 5.21047 10.9577 5.1238C10.7977 3.97904 11.392 2.78095 12.0777 2.03618C12.8425 1.19333 14.1225 0.566661 15.1853 0.523804C15.3225 1.68952 14.831 2.86666 14.0882 3.70857L14.0891 3.70952Z" fill="#555249"/>
</g>
<defs>
<clipPath id="clip0_1_132">
<rect width="20" height="20" fill="white" transform="translate(0.984375 0.5)"/>
</clipPath>
</defs>
</svg>
