<svg width="40" height="36" viewBox="0 0 40 36" fill="none" xmlns="http://www.w3.org/2000/svg">
<rect y="2" width="40" height="32" rx="4" fill="white"/>
<g clip-path="url(#clip0_1_255)">
<path fill-rule="evenodd" clip-rule="evenodd" d="M27.2 13.1913C26.6279 13.4484 26.0201 13.6175 25.3973 13.6926C26.055 13.292 26.5452 12.6665 26.777 11.9322C26.1704 12.2976 25.499 12.5622 24.7844 12.7044C24.4926 12.3877 24.1383 12.1349 23.744 11.9621C23.3496 11.7892 22.9236 11.6999 22.493 11.7C20.7596 11.7 19.3538 13.1238 19.3538 14.8806C19.3538 15.1299 19.3808 15.3729 19.4348 15.606C16.8266 15.4728 14.5136 14.2065 12.9647 12.2823C12.6947 12.7521 12.5399 13.2984 12.5399 13.8816C12.5399 14.985 13.0943 15.9588 13.9367 16.5285C13.4376 16.5125 12.9497 16.376 12.5147 16.1307V16.1712C12.5147 17.712 13.5965 18.9972 15.032 19.2897C14.5701 19.4172 14.0849 19.4359 13.6145 19.3446C14.0141 20.6082 15.1733 21.528 16.5476 21.5532C15.8992 22.0703 15.1543 22.4532 14.3564 22.6795C13.5584 22.9057 12.7234 22.9707 11.9 22.8708C13.3311 23.8042 15.0029 24.3008 16.7114 24.3C22.4858 24.3 25.643 19.4526 25.643 15.2496C25.643 15.1119 25.6394 14.9742 25.634 14.8383C26.2497 14.3867 26.78 13.8289 27.2 13.1913Z" fill="#25241D"/>
</g>
<defs>
<clipPath id="clip0_1_255">
<rect width="36" height="36" fill="white" transform="translate(2)"/>
</clipPath>
</defs>
</svg>
