<svg width="20" height="20" viewBox="0 0 20 20" fill="none" xmlns="http://www.w3.org/2000/svg">
<path d="M6.53333 11.6L6.13333 11.0667L5.06667 11.8667L5.46667 12.4L6.53333 11.6ZM14.5333 12.4L14.9333 11.8667L13.8667 11.0667L13.4667 11.6L14.5333 12.4ZM10 18.6667C7.70146 18.6667 5.49706 17.7536 3.87174 16.1283C2.24643 14.5029 1.33333 12.2985 1.33333 10H0C0 12.6522 1.05357 15.1957 2.92893 17.0711C4.8043 18.9464 7.34784 20 10 20V18.6667ZM18.6667 10C18.6667 11.1381 18.4425 12.2651 18.007 13.3166C17.5714 14.3681 16.933 15.3235 16.1283 16.1283C15.3235 16.933 14.3681 17.5714 13.3166 18.007C12.2651 18.4425 11.1381 18.6667 10 18.6667V20C12.6522 20 15.1957 18.9464 17.0711 17.0711C18.9464 15.1957 20 12.6522 20 10H18.6667ZM10 1.33333C11.1381 1.33333 12.2651 1.5575 13.3166 1.99304C14.3681 2.42858 15.3235 3.06697 16.1283 3.87174C16.933 4.67652 17.5714 5.63192 18.007 6.68341C18.4425 7.7349 18.6667 8.86188 18.6667 10H20C20 7.34784 18.9464 4.8043 17.0711 2.92893C15.1957 1.05357 12.6522 0 10 0V1.33333ZM10 0C7.34784 0 4.8043 1.05357 2.92893 2.92893C1.05357 4.8043 0 7.34784 0 10H1.33333C1.33333 7.70146 2.24643 5.49706 3.87174 3.87174C5.49706 2.24643 7.70146 1.33333 10 1.33333V0ZM5.33333 8H6.66667V6.66667H5.33333V8ZM13.3333 8H14.6667V6.66667H13.3333V8ZM13.4667 11.6C13.063 12.1382 12.5396 12.575 11.9379 12.8759C11.3362 13.1767 10.6727 13.3333 10 13.3333C9.32727 13.3333 8.66378 13.1767 8.06207 12.8759C7.46037 12.575 6.93697 12.1382 6.53333 11.6L5.46667 12.4C7.73333 15.4227 12.2667 15.4227 14.5333 12.4L13.4667 11.6Z" fill="white"/>
</svg>
