<svg width="20" height="20" viewBox="0 0 20 20" fill="none" xmlns="http://www.w3.org/2000/svg">
<path d="M18.6275 5.45543H14.5824C14.7899 5.32596 14.9867 5.18004 15.1706 5.0191C15.448 4.77358 15.6714 4.47389 15.8269 4.13873C15.9824 3.80357 16.0667 3.44015 16.0745 3.07117C16.0865 2.66527 16.015 2.26121 15.8644 1.88373C15.7137 1.50625 15.487 1.1633 15.1983 0.875893C14.9095 0.588483 14.5648 0.362663 14.1851 0.212266C13.8054 0.0618686 13.3988 -0.00993956 12.9902 0.00123999C12.6188 0.00896885 12.253 0.0927031 11.9156 0.247211C11.5782 0.40172 11.2765 0.623683 11.0294 0.899234C10.5753 1.43165 10.2261 2.04422 10 2.70496C9.77443 2.04471 9.42589 1.43249 8.97255 0.900208C8.72528 0.624241 8.42333 0.401957 8.0856 0.24727C7.74786 0.0925837 7.38162 0.0088257 7.0098 0.00123999C6.60097 -0.0104737 6.19403 0.0609065 5.81395 0.211003C5.43387 0.361099 5.08866 0.586747 4.7995 0.874108C4.51033 1.16147 4.2833 1.50449 4.13234 1.88212C3.98137 2.25975 3.90965 2.66404 3.92157 3.0702C3.92935 3.43917 4.01364 3.8026 4.16916 4.13775C4.32469 4.47291 4.54812 4.77261 4.82549 5.01812C5.00924 5.17929 5.20597 5.32523 5.41373 5.45446H1.37255C1.19222 5.45446 1.01366 5.48976 0.847071 5.55834C0.680482 5.62693 0.52913 5.72746 0.401664 5.85418C0.274198 5.9809 0.173117 6.13133 0.104198 6.29687C0.0352785 6.46242 -0.000128456 6.63983 3.50172e-07 6.81898V9.93566C3.50172e-07 10.2973 0.144608 10.6441 0.402011 10.8998C0.659414 11.1555 1.00853 11.2992 1.37255 11.2992H1.56863V17.7274C1.56863 18.089 1.71324 18.4358 1.97064 18.6915C2.22804 18.9473 2.57715 19.0909 2.94118 19.0909H17.0588C17.4228 19.0909 17.772 18.9473 18.0294 18.6915C18.2868 18.4358 18.4314 18.089 18.4314 17.7274V11.2992H18.6275C18.9915 11.2992 19.3406 11.1555 19.598 10.8998C19.8554 10.6441 20 10.2973 20 9.93566V6.81898C20 6.45734 19.8554 6.11052 19.598 5.8548C19.3406 5.59909 18.9915 5.45543 18.6275 5.45543ZM10.7618 4.38407C10.9824 3.20363 11.3784 2.2657 11.9078 1.67159C12.0495 1.51626 12.2219 1.39157 12.4141 1.30527C12.6064 1.21898 12.8145 1.17293 13.0255 1.17H13.0794C13.3233 1.17002 13.5647 1.21866 13.7894 1.31303C14.014 1.4074 14.2174 1.54558 14.3873 1.7194C14.5572 1.89322 14.6903 2.09913 14.7787 2.32497C14.8671 2.5508 14.909 2.79195 14.902 3.03416C14.8986 3.24396 14.8518 3.45083 14.7644 3.64187C14.6771 3.8329 14.551 4.00399 14.3941 4.14448C13.3431 5.06585 11.5608 5.34148 10.6216 5.42134C10.6461 5.13987 10.6863 4.78145 10.7618 4.38407ZM5.63235 1.70081C5.97455 1.36209 6.43753 1.17132 6.92059 1.17H6.97451C7.1857 1.1733 7.39393 1.21981 7.58623 1.30661C7.77852 1.39341 7.95075 1.51865 8.09216 1.67451C9.01961 2.7186 9.29706 4.48926 9.37745 5.42232C9.09412 5.39797 8.73333 5.35609 8.33726 5.28304C7.14902 5.06585 6.2049 4.67042 5.60686 4.1435C5.44973 4.00337 5.32343 3.8325 5.23587 3.6416C5.14832 3.45071 5.10139 3.24391 5.09804 3.03416C5.09127 2.78751 5.13516 2.54208 5.22703 2.31284C5.31889 2.0836 5.4568 1.87535 5.63235 1.70081ZM1.17647 9.93566V6.81898C1.17647 6.76732 1.19713 6.71777 1.2339 6.68124C1.27067 6.64471 1.32055 6.62419 1.37255 6.62419H9.41177V10.1305H1.37255C1.32055 10.1305 1.27067 10.1099 1.2339 10.0734C1.19713 10.0369 1.17647 9.98732 1.17647 9.93566ZM2.7451 17.7274V11.2992H9.41177V17.9222H2.94118C2.88917 17.9222 2.8393 17.9016 2.80253 17.8651C2.76576 17.8286 2.7451 17.779 2.7451 17.7274ZM17.2549 17.7274C17.2549 17.779 17.2342 17.8286 17.1975 17.8651C17.1607 17.9016 17.1108 17.9222 17.0588 17.9222H10.5882V11.2992H17.2549V17.7274ZM18.8235 9.93566C18.8235 9.98732 18.8029 10.0369 18.7661 10.0734C18.7293 10.1099 18.6795 10.1305 18.6275 10.1305H10.5882V6.62419H18.6275C18.6795 6.62419 18.7293 6.64471 18.7661 6.68124C18.8029 6.71777 18.8235 6.76732 18.8235 6.81898V9.93566Z" fill="white"/>
</svg>
