<svg width="37" height="37" viewBox="0 0 37 37" fill="none" xmlns="http://www.w3.org/2000/svg">
<path d="M18.5 0.5C8.55652 0.5 0.5 8.55652 0.5 18.5C0.5 28.4435 8.55652 36.5 18.5 36.5C28.4435 36.5 36.5 28.4435 36.5 18.5C36.5 8.55652 28.4435 0.5 18.5 0.5ZM18.5 8.27419C21.6533 8.27419 24.2097 10.8306 24.2097 13.9839C24.2097 17.1372 21.6533 19.6935 18.5 19.6935C15.3467 19.6935 12.7903 17.1372 12.7903 13.9839C12.7903 10.8306 15.3467 8.27419 18.5 8.27419ZM18.5 31.5484C14.6361 31.5484 11.16 29.8523 8.77029 27.1734C10.0584 24.9903 12.4036 23.5161 15.1129 23.5161C15.226 23.5161 15.3449 23.5349 15.4647 23.571C16.4181 23.8786 17.4289 24.0806 18.5 24.0806C19.5704 24.0806 20.5883 23.8789 21.5358 23.5708C21.6554 23.5348 21.7742 23.5161 21.8871 23.5161C24.5964 23.5161 26.9416 24.9903 28.2297 27.1734C25.84 29.8523 22.3639 31.5484 18.5 31.5484Z" fill="white" fill-opacity="0.8" stroke="black"/>
</svg>
