<svg width="16" height="22" viewBox="0 0 16 22" fill="none" xmlns="http://www.w3.org/2000/svg">
<path d="M10.7737 1.04464L1 13.1429H6.70543L5.30091 20.8763C5.29824 20.8915 5.29892 20.9071 5.30291 20.922C5.3069 20.9368 5.3141 20.9507 5.324 20.9625C5.33391 20.9743 5.34627 20.9837 5.36022 20.9902C5.37418 20.9967 5.38938 21 5.40477 21C5.42114 21 5.43727 20.9961 5.4519 20.9888C5.46652 20.9814 5.47923 20.9707 5.48901 20.9576L15.2636 8.85714H9.55814L10.9693 1.12277C10.9712 1.10736 10.9698 1.09172 10.9652 1.0769C10.9606 1.06207 10.9529 1.0484 10.9426 1.03678C10.9324 1.02517 10.9197 1.01588 10.9056 1.00954C10.8914 1.0032 10.8761 0.999947 10.8606 1C10.8436 1.00007 10.8269 1.00415 10.8118 1.0119C10.7967 1.01966 10.7836 1.03088 10.7737 1.04464Z" stroke="white" stroke-linecap="round" stroke-linejoin="round"/>
</svg>
